<svg xmlns="http://www.w3.org/2000/svg" viewBox="0 0 55 20"><path class="mas-loomLoginLogo" d="M0 0.1L1 0v16.6h9.9v1H0V0.1z"></path><path class="mas-loomLoginLogo" d="M20 17.8c-3.1 0-5.4-2.6-5.4-6.3s2.3-6.3 5.4-6.3c3.1 0 5.4 2.6 5.4 6.3S23.2 17.8 20 17.8zM20 6.1c-2.6 0-4.4 2.2-4.4 5.3 0 3.2 1.8 5.3 4.4 5.3 2.6 0 4.4-2.2 4.4-5.3C24.4 8.3 22.7 6.1 20 6.1z"></path><path class="mas-loomLoginLogo" d="M34.2 17.8c-3.1 0-5.4-2.6-5.4-6.3s2.3-6.3 5.4-6.3c3.1 0 5.4 2.6 5.4 6.3S37.4 17.8 34.2 17.8zM34.2 6.1c-2.6 0-4.4 2.2-4.4 5.3 0 3.2 1.8 5.3 4.4 5.3 2.6 0 4.4-2.2 4.4-5.3C38.6 8.3 36.8 6.1 34.2 6.1z"></path><path class="mas-loomLoginLogo" d="M49.3 14.8l-4.6-7.5v10.3h-1V5.4h0.9l4.8 7.8 4.8-7.8H55v12.3h-1V7.3L49.3 14.8 49.3 14.8z"></path></svg>