<svg xmlns="http://www.w3.org/2000/svg" width="375.661" height="145.999" viewBox="0 0 375.661 145.999"><path fill="#231F20" d="M135.622 46.45c2.185 0 3.282 1.032 3.282 3.103v58.35h-12.24c-2.187 0-3.278-1.035-3.278-3.107v-22.08H110.26v25.187H98.025c-2.188 0-3.282-1.035-3.282-3.107V46.45h12.235c2.188 0 3.282 1.032 3.282 3.103v20.572h13.125V46.45h12.237zM150.43 107.9c-2.19 0-3.28-1.035-3.28-3.107V47.512c3.31-.648 6.663-1.137 10.063-1.463 3.4-.325 6.432-.49 9.09-.49 3.724 0 6.963.356 9.71 1.065 2.75.71 5.023 1.863 6.827 3.46 1.805 1.595 3.135 3.694 3.992 6.294.854 2.603 1.285 5.796 1.285 9.577 0 7.332-1.55 12.637-4.656 15.916-3.103 3.283-7.697 4.922-13.788 4.922-1.48 0-2.88-.072-4.212-.223-1.33-.145-2.407-.31-3.235-.484v21.814H150.43zm11.794-32.722c.71.12 1.36.207 1.95.266.59.06 1.152.09 1.687.09 1.3 0 2.408-.133 3.326-.398.915-.27 1.67-.768 2.26-1.51.59-.736 1.034-1.73 1.33-2.97.296-1.24.442-2.84.442-4.79 0-1.83-.133-3.336-.397-4.52-.265-1.184-.663-2.113-1.197-2.795-.53-.678-1.227-1.137-2.084-1.373s-1.85-.355-2.972-.355c-.53 0-1.27.014-2.217.043-.945.03-1.652.076-2.126.133v18.18zm50.1 32.722c-2.19 0-3.28-1.035-3.28-3.107V46.45h12.236c2.185 0 3.282 1.032 3.282 3.103V95.22h16.493c2.186 0 3.28 1.034 3.28 3.105v9.578h-32.012zm50.276.53c-4.255 0-7.522-1.27-9.797-3.813-2.277-2.54-3.414-6.15-3.414-10.82 0-3.192.516-5.747 1.552-7.67 1.033-1.92 2.407-3.368 4.122-4.343 1.715-.977 3.666-1.61 5.854-1.908 2.186-.296 4.463-.442 6.827-.442h5.41v-2.662c0-1.89-.653-3.06-1.952-3.504-1.302-.44-3.312-.664-6.03-.664-2.425 0-4.596.06-6.518.18-1.923.117-3.146.176-3.68.176-1.124 0-1.92-.295-2.394-.887-.473-.592-.71-1.27-.71-2.04V63.83c1.654-.71 3.87-1.39 6.65-2.04 2.78-.65 5.97-.978 9.578-.978 6.916 0 11.88 1.45 14.897 4.348 3.014 2.895 4.523 7.035 4.523 12.412v30.33h-8.516c-.65 0-1.194-.047-1.64-.133-.44-.09-.813-.27-1.108-.536-.297-.266-.563-.635-.796-1.107-.237-.47-.474-1.063-.71-1.773l-.532-1.42c-1.183 1.303-2.722 2.543-4.612 3.727-1.892 1.18-4.224 1.772-7.004 1.772zm10.464-20.395h-5.675c-1.952 0-3.326.43-4.123 1.287-.8.857-1.197 2.055-1.197 3.59 0 1.834.444 3.09 1.33 3.77.887.68 2.156 1.02 3.813 1.02 2.364 0 4.313-.592 5.85-1.775v-7.893zm33.697-43.805c2.187 0 3.28 1.033 3.28 3.104V63.92c1.184-.77 2.497-1.48 3.946-2.13 1.45-.65 3.296-.978 5.542-.978 2.07 0 4.02.402 5.854 1.2 1.83.798 3.444 2.157 4.832 4.077 1.39 1.92 2.482 4.446 3.282 7.58.797 3.134 1.195 7.036 1.195 11.706 0 4.256-.368 7.88-1.107 10.863s-1.938 5.437-3.59 7.358c-1.655 1.92-3.8 3.313-6.43 4.17-2.63.854-5.808 1.283-9.53 1.283-3.903 0-7.304-.34-10.2-1.02-2.896-.677-4.935-1.313-6.118-1.905-.65-.295-1.227-.74-1.73-1.332-.5-.588-.752-1.535-.752-2.838V44.232h11.528zm3.28 53.56c1.124.177 2.247.267 3.373.267 1.12 0 2.084-.12 2.88-.356.8-.236 1.45-.8 1.952-1.686.502-.887.87-2.17 1.108-3.857.236-1.685.354-4 .354-6.96 0-2.658-.104-4.848-.312-6.563-.208-1.713-.546-3.074-1.02-4.078-.473-1.005-1.08-1.7-1.818-2.085-.738-.383-1.67-.576-2.79-.576-1.363 0-2.605.296-3.728.888v25.005zM341.7 96.73c2.482.175 4.878.325 7.182.442 2.306.12 4.315.176 6.03.176 2.66 0 4.462-.223 5.41-.664.945-.443 1.42-1.344 1.42-2.703 0-.59-.09-1.065-.267-1.42-.18-.355-.505-.68-.976-.976-.477-.295-1.108-.56-1.908-.797-.798-.236-1.85-.502-3.147-.8-2.485-.59-4.612-1.228-6.385-1.905-1.775-.678-3.253-1.52-4.434-2.527-1.184-1.006-2.056-2.29-2.615-3.857-.564-1.566-.844-3.563-.844-5.986 0-3.072.413-5.57 1.24-7.494.826-1.92 1.995-3.44 3.502-4.566 1.507-1.12 3.297-1.89 5.366-2.303 2.066-.415 4.345-.622 6.827-.622 3.487 0 6.28.252 8.38.754s3.65.96 4.656 1.373c1.065.475 1.804.99 2.217 1.55.413.564.62 1.464.62 2.706v5.944c-3.902-.236-6.783-.402-8.645-.488-1.86-.09-3.268-.133-4.212-.133-2.012 0-3.532.162-4.566.488-1.036.323-1.553 1.108-1.553 2.35 0 1.185.488 2.01 1.464 2.483.977.473 2.497.947 4.567 1.416 2.482.65 4.656 1.302 6.518 1.95 1.86.652 3.383 1.496 4.566 2.53 1.182 1.032 2.07 2.335 2.662 3.9.59 1.565.887 3.562.887 5.985 0 3.014-.432 5.527-1.29 7.537-.855 2.012-2.054 3.607-3.59 4.79-1.538 1.183-3.368 2.01-5.495 2.48-2.13.474-4.466.71-7.006.71-3.018 0-5.78-.236-8.294-.71-2.512-.47-4.36-.944-5.542-1.417-1.063-.473-1.787-1.05-2.17-1.73-.388-.68-.578-1.52-.578-2.528V96.73zM94.93 12.827c.404-.064.88-.127 1.423-.19.546-.064 1.114-.124 1.712-.177s1.2-.095 1.81-.126c.606-.035 1.166-.05 1.68-.05 1.473 0 2.72.226 3.744.673 1.02.447 1.85 1.135 2.478 2.064.63.927 1.09 2.097 1.374 3.503.29 1.408.434 3.082.434 5.025 0 1.832-.145 3.443-.434 4.832-.285 1.385-.756 2.543-1.405 3.47-.652.93-1.495 1.622-2.53 2.08-1.035.46-2.297.687-3.79.687H95.41c-.318 0-.48-.158-.48-.48v-21.31zm6.43 1.12c-.894 0-1.742.028-2.542.08-.8.056-1.478.132-2.03.24v18.687h4.285c1.024 0 1.948-.12 2.77-.352.82-.234 1.508-.693 2.062-1.377.554-.682.98-1.637 1.28-2.863.3-1.227.448-2.832.448-4.814 0-1.858-.112-3.4-.337-4.626-.223-1.227-.586-2.21-1.086-2.943-.502-.735-1.154-1.26-1.954-1.567s-1.763-.466-2.895-.466zm18.016 20.958c-1.195 0-2.23-.145-3.104-.434-.875-.287-1.596-.756-2.162-1.404-.563-.652-.984-1.504-1.26-2.56-.278-1.058-.417-2.343-.417-3.858 0-1.555.14-2.875.416-3.95.275-1.077.686-1.952 1.228-2.624.545-.674 1.218-1.164 2.018-1.473s1.72-.465 2.768-.465c1.172 0 2.137.176 2.896.527.757.354 1.343.836 1.758 1.44.42.61.704 1.33.866 2.16.16.835.24 1.73.24 2.69 0 .424-.023.852-.064 1.28-.043.425-.098.767-.16 1.022h-10.176c.063 1.088.182 2.016.352 2.783s.453 1.396.85 1.887c.395.492.932.85 1.615 1.072.683.224 1.558.337 2.625.337 1.045 0 1.882-.06 2.512-.178.63-.118 1.07-.177 1.327-.177.19 0 .324.053.398.16.075.105.113.213.113.32v.83c-.468.174-1.126.31-1.966.416-.843.11-1.736.173-2.674.196zm-.51-15.197c-.898 0-1.64.145-2.226.446-.586.297-1.057.72-1.41 1.264-.348.543-.6 1.184-.75 1.92-.15.736-.233 1.54-.256 2.416h8.607c.02-.15.032-.295.032-.434v-.4c0-.852-.052-1.607-.158-2.27-.107-.66-.31-1.204-.61-1.632-.296-.428-.703-.75-1.214-.977-.51-.225-1.183-.334-2.015-.334zm20.346-1.187c.17 0 .283.043.338.13.052.083.07.202.046.35-.17 1.28-.438 2.595-.8 3.937-.366 1.344-.787 2.684-1.27 4.016-.48 1.332-1.01 2.652-1.588 3.95-.577 1.302-1.163 2.54-1.764 3.712h-1.443c-.212 0-.35-.03-.414-.094-.063-.064-.15-.203-.257-.416-.602-1.195-1.182-2.443-1.75-3.744-.566-1.303-1.08-2.613-1.54-3.938-.46-1.322-.862-2.65-1.203-3.982-.344-1.332-.59-2.64-.738-3.92h1.438c.277 0 .44.16.482.48.364 2.455.955 4.885 1.78 7.295.823 2.41 1.738 4.618 2.746 6.624.514-1.025 1.007-2.12 1.478-3.283.47-1.16.91-2.358 1.316-3.6.407-1.233.765-2.48 1.074-3.74.312-1.257.55-2.517.725-3.776h1.342zm9.633 16.383c-1.195 0-2.23-.145-3.106-.434-.875-.287-1.594-.756-2.16-1.404-.565-.652-.987-1.504-1.264-2.56-.277-1.058-.416-2.343-.416-3.858 0-1.555.14-2.875.416-3.95.276-1.077.69-1.952 1.232-2.624.545-.674 1.215-1.164 2.015-1.473.802-.31 1.724-.465 2.77-.465 1.173 0 2.138.176 2.896.527.756.354 1.342.836 1.757 1.44.416.61.704 1.33.863 2.16.16.835.242 1.73.242 2.69 0 .424-.022.852-.066 1.28-.04.425-.095.767-.158 1.022h-10.175c.063 1.088.182 2.016.352 2.783s.453 1.396.85 1.887c.392.492.932.85 1.615 1.072.682.224 1.557.337 2.62.337 1.046 0 1.886-.06 2.516-.178.626-.118 1.07-.177 1.327-.177.19 0 .324.053.398.16.076.105.114.213.114.32v.83c-.47.174-1.126.31-1.97.416s-1.73.173-2.67.196zm-.513-15.197c-.896 0-1.637.145-2.223.446-.587.297-1.058.72-1.41 1.264-.353.543-.604 1.184-.75 1.92-.15.736-.237 1.54-.257 2.416h8.607c.02-.15.03-.295.03-.434v-.4c0-.852-.054-1.607-.157-2.27-.11-.66-.313-1.204-.61-1.632-.3-.428-.703-.75-1.214-.977-.515-.225-1.184-.334-2.018-.334zm13.898 14.813c-.214.043-.485.088-.817.143-.332.053-.646.078-.943.078-.918 0-1.594-.27-2.032-.813-.436-.546-.655-1.265-.655-2.16V11.646h1.31c.32 0 .482.16.482.482v19.578c0 .684.12 1.105.367 1.264.245.16.635.24 1.17.24h.67c.172 0 .287.048.35.144.067.098.1.2.1.307v.863zm7.967-16.384c2.303 0 3.966.688 4.99 2.063 1.025 1.377 1.536 3.494 1.536 6.354 0 2.877-.51 5.008-1.536 6.38-1.024 1.378-2.688 2.065-4.99 2.065-2.307 0-3.97-.688-4.994-2.064-1.02-1.373-1.535-3.504-1.535-6.38 0-2.86.514-4.978 1.535-6.355 1.025-1.375 2.687-2.064 4.994-2.064zm0 15.294c.788 0 1.475-.12 2.063-.365.586-.247 1.077-.642 1.47-1.19.396-.542.69-1.25.88-2.126.193-.875.29-1.94.29-3.197 0-1.26-.097-2.322-.29-3.186-.19-.86-.484-1.565-.88-2.11-.393-.543-.884-.94-1.47-1.184-.59-.246-1.275-.367-2.063-.367-.79 0-1.48.12-2.064.366-.59.244-1.08.64-1.472 1.184-.395.545-.69 1.25-.88 2.11-.193.864-.288 1.927-.288 3.187 0 1.258.095 2.322.288 3.197.19.875.485 1.584.88 2.127.394.548.884.942 1.473 1.19.585.243 1.273.364 2.064.364zm9.756-13.31c-.317 0-.48-.16-.48-.48v-.833c.385-.062.817-.126 1.297-.188.48-.064.976-.12 1.486-.162.514-.04 1.024-.078 1.54-.11.51-.034.978-.048 1.404-.048 1.26 0 2.364.133 3.313.398.947.268 1.738.71 2.367 1.328.63.62 1.103 1.445 1.423 2.482.32 1.033.48 2.316.48 3.854 0 1.365-.107 2.576-.318 3.63-.214 1.058-.565 1.942-1.057 2.655-.49.716-1.143 1.26-1.95 1.634-.813.373-1.825.56-3.04.56-1.068 0-1.932-.118-2.593-.353-.664-.23-1.175-.437-1.535-.608v6.178h-1.313c-.32 0-.48-.162-.48-.482V20.125h-.544zm6.24 13.15c.813 0 1.517-.106 2.114-.32.595-.212 1.09-.58 1.486-1.104.396-.52.687-1.215.88-2.078.19-.865.29-1.957.29-3.28 0-1.194-.1-2.214-.29-3.056-.193-.844-.514-1.53-.96-2.064-.448-.533-1.046-.924-1.794-1.168-.745-.242-1.675-.367-2.783-.367-.363 0-.812.012-1.342.03-.534.022-1.036.056-1.504.097v12.383c.555.258 1.14.477 1.76.656.617.18 1.332.272 2.144.272zm16.94 1.632c-1.196 0-2.23-.145-3.105-.434-.875-.287-1.596-.756-2.162-1.404-.563-.652-.984-1.504-1.262-2.56-.276-1.058-.415-2.343-.415-3.858 0-1.555.138-2.875.414-3.95.277-1.077.688-1.952 1.23-2.624.545-.674 1.218-1.164 2.018-1.473s1.72-.465 2.768-.465c1.172 0 2.137.176 2.896.527.757.354 1.343.836 1.758 1.44.42.61.704 1.33.866 2.16.16.835.24 1.73.24 2.69 0 .424-.023.852-.064 1.28-.043.425-.098.767-.16 1.022H197.98c.063 1.088.182 2.016.352 2.783s.453 1.396.85 1.887c.395.492.932.85 1.615 1.072.682.224 1.557.337 2.624.337 1.046 0 1.883-.06 2.513-.178.63-.118 1.07-.177 1.327-.177.19 0 .324.053.398.16.075.105.113.213.113.32v.83c-.467.174-1.125.31-1.965.416-.843.11-1.735.173-2.673.196zm-.512-15.197c-.896 0-1.638.145-2.224.446-.586.297-1.057.72-1.41 1.264-.348.543-.6 1.184-.75 1.92-.15.736-.233 1.54-.256 2.416h8.607c.02-.15.03-.295.03-.434v-.4c0-.852-.05-1.607-.157-2.27-.107-.66-.31-1.204-.61-1.632-.296-.428-.703-.75-1.214-.977-.51-.225-1.183-.334-2.015-.334zm20.313 14.907c-.317 0-.48-.158-.48-.48l-.062-1.28c-.51.514-1.168.986-1.968 1.426-.8.436-1.818.654-3.054.654-1.09 0-1.995-.207-2.72-.623-.728-.416-1.308-.992-1.746-1.73-.436-.735-.74-1.616-.912-2.638-.17-1.025-.254-2.156-.254-3.39 0-3.01.554-5.165 1.663-6.464 1.106-1.303 2.718-1.955 4.83-1.955 1.065 0 1.926.12 2.575.352.652.235 1.157.438 1.52.608v-7.455h1.312c.32 0 .48.16.48.482v22.49h-1.184zm-.605-14.013c-.555-.256-1.138-.467-1.744-.64-.608-.17-1.318-.255-2.127-.255-.877 0-1.622.12-2.24.366-.62.244-1.125.64-1.52 1.184-.397.545-.683 1.25-.864 2.11-.182.864-.27 1.915-.27 3.153 0 2.283.285 3.996.862 5.137.574 1.14 1.662 1.71 3.265 1.71.574 0 1.097-.07 1.567-.208.468-.137.895-.314 1.278-.527s.725-.447 1.025-.705c.297-.256.554-.502.768-.734V20.604zm31.13-2.08c.214 0 .347.054.4.16.053.106.07.214.047.32-.146 1.216-.366 2.493-.652 3.84-.288 1.34-.617 2.698-.99 4.063-.372 1.365-.787 2.7-1.243 4.016-.456 1.31-.94 2.543-1.45 3.693h-1.408c-.17 0-.297-.03-.384-.094-.083-.064-.158-.215-.222-.447l-3.487-11.97-3.65 12.51h-1.408c-.213 0-.354-.03-.418-.093-.063-.064-.147-.203-.254-.416-.494-1.176-.97-2.428-1.43-3.762-.46-1.33-.87-2.676-1.237-4.03-.364-1.356-.68-2.692-.947-4.017-.266-1.322-.465-2.582-.592-3.775h1.41c.275 0 .435.16.478.48.127 1.066.307 2.186.53 3.36.227 1.173.486 2.356.786 3.55.3 1.195.63 2.365.98 3.506.356 1.14.726 2.2 1.11 3.184L243.2 19.74h1.44c.234 0 .396.147.48.446l3.647 12.416c.38-1.025.753-2.133 1.113-3.328s.695-2.41 1.005-3.648c.31-1.236.57-2.463.797-3.678.222-1.22.397-2.36.524-3.426h1.248zm4.417-3.135c-.447 0-.78-.097-.993-.29-.214-.19-.32-.53-.32-1.02 0-.493.106-.837.32-1.026.214-.193.546-.29.993-.29s.776.097.99.29c.213.19.32.533.32 1.025 0 .49-.107.83-.32 1.02-.213.193-.542.29-.99.29zm-.93 3.133h1.314c.32 0 .478.16.478.48v15.613h-1.31c-.32 0-.482-.158-.482-.48V18.524zm12.19 14.717c.257 0 .428.05.515.145.083.1.127.21.127.338v.863c-.812.17-1.568.258-2.272.258s-1.29-.082-1.76-.24c-.47-.162-.844-.385-1.12-.672-.277-.29-.474-.63-.592-1.025-.116-.396-.177-.826-.177-1.297V20.06h-1.438c-.32 0-.48-.16-.48-.48v-1.056h1.918v-4.318h1.313c.32 0 .478.158.478.48v3.84h3.648c.32 0 .48.16.48.48v1.056h-4.13V31.39c0 .297.02.56.064.78.043.226.145.423.306.593.16.17.393.3.704.385.31.086.73.13 1.262.13.236 0 .46-.007.673-.02.215-.012.374-.018.48-.018zm5.632-12.988c.49-.535 1.175-1.02 2.05-1.455.874-.44 1.95-.658 3.23-.658 1.558 0 2.794.444 3.712 1.327.917.887 1.376 2.31 1.376 4.27v10.88h-1.314c-.317 0-.48-.158-.48-.48V23.804c0-1.47-.334-2.52-1.007-3.15-.672-.63-1.562-.943-2.673-.943-.574 0-1.114.068-1.613.207-.503.14-.962.32-1.378.543-.416.227-.785.47-1.103.736-.32.27-.59.518-.804.754v12.668h-1.31c-.32 0-.48-.158-.48-.48V11.646h1.31c.32 0 .48.16.48.482v8.125zM78.412 91.755c-.665-1.753-1.973-3.14-3.683-3.91-.913-.41-1.88-.62-2.876-.62-1.488 0-2.896.486-4.063 1.316l-4.57-5.827c.533-.64.992-1.348 1.344-2.13 1.017-2.257 1.092-4.774.213-7.09-.856-2.26-2.526-4.054-4.704-5.084l2.078-10.625c.947.223 1.914.345 2.898.345 5.017 0 9.588-2.955 11.646-7.53 2.886-6.415.014-13.984-6.403-16.872-1.66-.747-3.42-1.126-5.228-1.126-5.016 0-9.586 2.955-11.645 7.53-1.398 3.108-1.502 6.575-.293 9.762 1.14 3.003 3.324 5.405 6.173 6.844L57.18 67.575c-.354-.04-.708-.065-1.066-.065-1.096 0-2.153.215-3.15.577l-24.33-44.31c2.253-1.315 4.102-3.308 5.214-5.78 1.398-3.107 1.502-6.574.293-9.762-1.21-3.187-3.587-5.71-6.695-7.11C25.782.38 24.022 0 22.213 0c-5.016 0-9.586 2.955-11.643 7.53-1.398 3.107-1.504 6.574-.294 9.76 1.21 3.19 3.587 5.713 6.694 7.11 1.662.748 3.422 1.127 5.23 1.127 1.264 0 2.498-.188 3.672-.542L50.344 69.55c-.8.635-1.504 1.39-2.062 2.268l-11.64-4.657c.376-2.497-.924-5.047-3.338-6.134-.752-.338-1.548-.51-2.367-.51-2.27 0-4.342 1.34-5.273 3.41-.635 1.408-.682 2.98-.133 4.422.548 1.444 1.625 2.588 3.033 3.22.75.34 1.548.51 2.367.51 1.775 0 3.42-.824 4.5-2.17l11.68 4.673c-.214.877-.294 1.763-.25 2.637l-20.277 6.107c-1.175-3.473-3.72-6.473-7.317-8.093-1.777-.798-3.66-1.203-5.596-1.203-5.37 0-10.266 3.164-12.47 8.06-3.09 6.872-.013 14.976 6.856 18.066 1.777.8 3.66 1.204 5.596 1.204 5.37 0 10.266-3.163 12.47-8.06 1.027-2.285 1.358-4.706 1.11-7.034l20.255-6.103c.686 1.75 1.903 3.287 3.546 4.363l-16.25 36.92c-.432-.048-.868-.07-1.308-.07-4.84 0-9.247 2.85-11.23 7.263-1.35 2.998-1.45 6.343-.283 9.417s3.46 5.51 6.46 6.86c1.602.72 3.3 1.085 5.043 1.085 4.84 0 9.25-2.85 11.233-7.263 1.35-3 1.45-6.344.282-9.418-1.166-3.075-3.46-5.51-6.46-6.858-.254-.115-.515-.205-.773-.303L53.775 85.74c.76.198 1.537.312 2.33.312 1.743 0 3.406-.503 4.838-1.38l4.81 6.132c-.104.186-.215.365-.303.56-.77 1.71-.825 3.617-.16 5.37.665 1.752 1.973 3.14 3.682 3.91.913.41 1.88.618 2.876.618 2.76 0 5.27-1.625 6.402-4.14.77-1.708.827-3.615.162-5.367z"/></svg>