<svg xmlns="http://www.w3.org/2000/svg" width="1080" height="810" viewBox="0 0 1080 810"><defs><clipPath id="a"><path d="M0 648h864V0H0v648z"/></clipPath></defs><g><g fill="#fff"><g clip-path="url(#a)" transform="matrix(1.25 0 0 -1.25 0 810)"><g><path d="M562.704 390.026H528.31L480.14 257.868h34.396l48.166 132.158zM432.012 107.964c-2.148 0-4.286.04-6.42.1l44.143 121.32h60.75c10.663 0 22.368 8.197 26.015 18.21l47.892 131.547c7.834 21.538-4.5 39.158-27.418 39.158h-84.28L421.98 223.982h-.027l-40.09-110.153c-95.107 22.61-165.85 108.107-165.85 210.134 0 99.086 66.72 182.58 157.68 208.028L332.33 418.298h-.013L263.55 229.383l45.78-.003 58.48 160.53h34.405l-58.482-160.53 45.76-.008 54.5 149.77c7.84 21.536-4.498 39.156-27.393 39.156h-38.482l44.186 121.44c3.22.143 6.454.227 9.708.227 119.294 0 216-96.706 216-216 0-119.293-96.706-216-216-216"/></g></g></g></g></svg>