<?xml version="1.0" encoding="utf-8"?>
<!-- Generator: Adobe Illustrator 19.0.0, SVG Export Plug-In . SVG Version: 6.00 Build 0)  -->
<svg version="1.1" id="Layer_1" xmlns="http://www.w3.org/2000/svg" xmlns:xlink="http://www.w3.org/1999/xlink" x="0px" y="0px"
	 viewBox="0 0 22 22" style="enable-background:new 0 0 22 22;" xml:space="preserve">
<style type="text/css">
	.st0{fill:#767676;}
</style>
<g id="XMLID_8589_">
	<path id="XMLID_103_" class="st0" d="M11,14.9c-2.2,0-4-1.8-4-4s1.8-4,4-4s4,1.8,4,4S13.2,14.9,11,14.9z M11,8.9c-1.1,0-2,0.9-2,2
		s0.9,2,2,2s2-0.9,2-2S12.1,8.9,11,8.9z"/>
	<rect id="XMLID_101_" x="10" class="st0" width="2" height="5"/>
	<rect id="XMLID_100_" x="10" y="17" class="st0" width="2" height="5"/>
	<rect id="XMLID_99_" y="10" class="st0" width="5" height="2"/>
	<rect id="XMLID_98_" x="17" y="10" class="st0" width="5" height="2"/>
	
		<rect id="XMLID_97_" x="16" y="2.5" transform="matrix(0.7071 0.7071 -0.7071 0.7071 8.5104 -10.5668)" class="st0" width="2" height="5"/>
	
		<rect id="XMLID_96_" x="4" y="14.5" transform="matrix(0.7071 0.7071 -0.7071 0.7071 13.4895 1.4541)" class="st0" width="2" height="5"/>
	
		<rect id="XMLID_95_" x="2.5" y="4" transform="matrix(0.7071 0.7071 -0.7071 0.7071 4.9895 -2.0667)" class="st0" width="5" height="2"/>
	
		<rect id="XMLID_94_" x="14.5" y="16" transform="matrix(0.7072 0.7071 -0.7071 0.7072 17.0087 -7.0461)" class="st0" width="5" height="2"/>
</g>
</svg>
